<svg id="eQeTWDZ3wom1" xmlns="http://www.w3.org/2000/svg" xmlns:xlink="http://www.w3.org/1999/xlink" viewBox="0 0 512 512" shape-rendering="geometricPrecision" text-rendering="geometricPrecision" project-id="278639bbaa734fc89287d4bde5892f19" export-id="b860d317bbdc438f8224a7261041cf5f" cached="false"><path d="M393.92,194.23v119.18c0,38.2-30.97,69.17-69.17,69.17h-138.64c-38.2,0-69.17-30.97-69.17-69.17v-119.18c0-30.55,19.79-56.46,47.25-65.63c1.72-.58,3.07-1.94,3.65-3.66l11.88-35.16c1.32-3.92,6.37-4.98,9.16-1.92l32.04,35.09.02.02c1.16,1.28,2.75,2.09,4.48,2.09h59.52c1.73,0,3.32-.81,4.48-2.09l.02-.02l32.04-35.09c2.79-3.06,7.84-2,9.16,1.92l11.81,34.97c.59,1.74,1.95,3.11,3.7,3.68c27.72,9.01,47.77,35.06,47.77,65.8ZM255.73,309.69c28.7409,0,52.04-23.2991,52.04-52.04s-23.2991-52.04-52.04-52.04-52.04,23.2991-52.04,52.04s23.2991,52.04,52.04,52.04Zm78.78-110.52c5.82108,0,10.54-4.71892,10.54-10.54s-4.71892-10.54-10.54-10.54-10.54,4.71892-10.54,10.54s4.71892,10.54,10.54,10.54Z" fill="none" stroke="#000" stroke-width="25" stroke-miterlimit="10"/></svg>
